<svg xmlns="http://www.w3.org/2000/svg" xmlns:xlink="http://www.w3.org/1999/xlink" viewBox="0,0,256,256" width="26px" height="26px" fill-rule="nonzero"><g transform=""><g fill="#000000" fill-rule="nonzero" stroke="none" stroke-width="1" stroke-linecap="butt" stroke-linejoin="miter" stroke-miterlimit="10" stroke-dasharray="" stroke-dashoffset="0" font-family="none" font-weight="none" font-size="none" text-anchor="none" style="mix-blend-mode: normal"><g transform="translate(0.46154,11.85647) scale(9.84615,9.84615)"><path d="M10,0c-5.45312,0 -10,3.75 -10,8.5c0,2.42969 1.32813,4.54688 3.21875,6.09375c-0.15234,0.98047 -0.55078,1.71875 -0.96875,2.25c-0.23828,0.30078 -0.45312,0.55469 -0.65625,0.78125c-0.10156,0.11328 -0.19922,0.22266 -0.3125,0.40625c-0.05859,0.09375 -0.14453,0.19531 -0.1875,0.40625c-0.04297,0.21094 0.01563,0.55469 0.1875,0.8125l0.125,0.21875l0.25,0.125c0.875,0.4375 1.82031,0.35938 2.6875,0.125c0.86719,-0.23437 1.70313,-0.64062 2.5,-1.0625c0.79688,-0.42187 1.55859,-0.86328 2.15625,-1.1875c0.08203,-0.04687 0.13672,-0.05469 0.21875,-0.09375c1.57813,2.16797 4.46484,3.625 7.6875,3.625c0.03125,0.00391 0.05859,0 0.09375,0c1.30078,0 5.5,4.29297 8,2.59375c0.10156,-0.39844 -2.19922,-1.39844 -2.3125,-4.375c1.95703,-1.38281 3.21875,-3.44141 3.21875,-5.71875c0,-3.37109 -2.67578,-6.16016 -6.25,-7.15625c-1.12891,-3.67969 -5.0625,-6.34375 -9.65625,-6.34375zM10,2c4.54688,0 8,3.05078 8,6.5c0,3.44922 -3.45312,6.5 -8,6.5c-0.8125,0 -1.27734,0.33203 -1.9375,0.6875c-0.66016,0.35547 -1.41797,0.79688 -2.15625,1.1875c-0.64062,0.33984 -1.25,0.59766 -1.8125,0.78125c0.54688,-0.78906 1.11719,-1.82812 1.21875,-3.28125l0.03125,-0.5625l-0.46875,-0.34375c-1.78125,-1.24609 -2.875,-3.04687 -2.875,-4.96875c0,-3.44922 3.45313,-6.5 8,-6.5z"></path></g></g></g></svg>