<svg xmlns="http://www.w3.org/2000/svg"  viewBox="0 0 512 512" width="64px" height="64px"><path fill="#DBF0F4" d="M7.9,256C7.9,119,119,7.9,256,7.9C393,7.9,504.1,119,504.1,256c0,137-111.1,248.1-248.1,248.1C119,504.1,7.9,393,7.9,256z"/><path fill="#357180" d="M214.3,146.5c-72.4,0-131.1,44.7-131.1,99.7c0,18.3,6.6,35.4,17.9,50.1l-17.5,58.8l73-19.5c17.4,6.5,36.9,10.3,57.7,10.3c72.4,0,131.1-44.6,131.1-99.7C345.3,191.2,286.7,146.5,214.3,146.5z"/><path fill="#B7CAC4" d="M161.9 230.5A14.7 14.7 0 1 0 161.9 259.9 14.7 14.7 0 1 0 161.9 230.5zM222.6 245.2c0 8.1-6.6 14.7-14.7 14.7-8.1 0-14.7-6.6-14.7-14.7s6.6-14.7 14.7-14.7C216.1 230.5 222.6 237 222.6 245.2zM267.7 245.2c0 8.1-6.6 14.7-14.7 14.7-8.1 0-14.7-6.6-14.7-14.7s6.6-14.7 14.7-14.7C261.1 230.5 267.7 237 267.7 245.2z"/><g><path fill="#67B8CB" d="M340.4,173.1c57.1,0,103.4,35.2,103.4,78.6c0,14.4-5.2,27.9-14.1,39.5l13.8,46.3l-57.5-15.3c-13.7,5.1-29.1,8.1-45.5,8.1c-57.1,0-103.4-35.2-103.4-78.6C237,208.3,283.3,173.1,340.4,173.1z"/></g><g><path fill="#B7CAC4" d="M316.1 248.1c0 6.9-5.6 12.6-12.6 12.6-6.9 0-12.6-5.6-12.6-12.6 0-6.9 5.6-12.6 12.6-12.6C310.5 235.5 316.1 241.1 316.1 248.1zM355.5 248.1c0 6.9-5.6 12.6-12.6 12.6-6.9 0-12.6-5.6-12.6-12.6 0-6.9 5.6-12.6 12.6-12.6C349.9 235.5 355.5 241.1 355.5 248.1zM394 248.1c0 6.9-5.6 12.6-12.6 12.6-7 0-12.6-5.6-12.6-12.6 0-6.9 5.6-12.6 12.6-12.6C388.4 235.5 394 241.1 394 248.1z"/></g></svg>