<svg xmlns="http://www.w3.org/2000/svg" xmlns:xlink="http://www.w3.org/1999/xlink" viewBox="0,0,256,256" width="48px" height="48px" fill-rule="nonzero"><g transform="translate(-16.64,-16.64) scale(1.13,1.13)"><g fill="#000000" fill-rule="nonzero" stroke="none" stroke-width="1" stroke-linecap="butt" stroke-linejoin="miter" stroke-miterlimit="10" stroke-dasharray="" stroke-dashoffset="0" font-family="none" font-weight="none" font-size="none" text-anchor="none" style="mix-blend-mode: normal"><g transform="scale(5.33333,5.33333)"><path d="M19.31836,4.00195c-3.20224,0 -5.79838,2.29559 -6.41992,5.29102c-4.00438,0.6102 -7.16992,3.86511 -7.16992,7.98047c0,0.43221 0.08327,0.81342 0.14844,1.20703c-1.1109,1.57454 -1.87695,3.43578 -1.87695,5.51953c0,2.97113 1.16168,5.73895 3.39258,7.5957c-0.13443,0.54605 -0.33594,1.06614 -0.33594,1.65625c0,0.11585 0.06292,0.21163 0.06836,0.32617c0.00064,0.00391 0.00129,0.00782 0.00195,0.01172c0.19263,3.91673 3.46775,7.04688 7.47461,7.04688c0.10563,0 0.23879,-0.02182 0.35547,-0.02539c0.91779,1.9877 2.89092,3.38867 5.22461,3.38867c3.1741,0 5.81836,-2.54996 5.81836,-5.70508v-6.29492h1.5c0.78799,0 1.52773,0.37009 2,1l1.50977,2.01172c-0.64511,0.89628 -1.00977,1.93538 -1.00977,2.98828c0,1.20833 0.39566,2.43682 1.25391,3.40234c0.85824,0.96552 2.20443,1.59766 3.74609,1.59766c1.54167,0 2.88785,-0.63213 3.74609,-1.59766c0.85824,-0.96552 1.25391,-2.19401 1.25391,-3.40234c0,-1.20833 -0.39566,-2.43682 -1.25391,-3.40234c-0.85824,-0.96552 -2.20443,-1.59766 -3.74609,-1.59766c-0.54885,0 -1.02952,0.16582 -1.51562,0.3125l-1.58398,-2.11328c-1.03772,-1.38409 -2.67038,-2.19922 -4.40039,-2.19922h-1.5v-3.5h8.25586c0.19936,0.68395 0.49885,1.34074 0.99805,1.90234c0.85824,0.96552 2.20443,1.59766 3.74609,1.59766c1.54167,0 2.88785,-0.63213 3.74609,-1.59766c0.85824,-0.96552 1.25391,-2.19401 1.25391,-3.40234c0,-1.20833 -0.39566,-2.43682 -1.25391,-3.40234c-0.85824,-0.96552 -2.20443,-1.59766 -3.74609,-1.59766c-1.54167,0 -2.88785,0.63213 -3.74609,1.59766c-0.4992,0.5616 -0.79868,1.2184 -0.99805,1.90234h-8.25586v-3.5h1.5c1.73001,0 3.36267,-0.81513 4.40039,-2.19922l1.58398,-2.11328c0.48611,0.14668 0.96677,0.3125 1.51563,0.3125c1.54167,0 2.88785,-0.63213 3.74609,-1.59766c0.85824,-0.96552 1.25391,-2.19401 1.25391,-3.40234c0,-1.20833 -0.39566,-2.43682 -1.25391,-3.40234c-0.85824,-0.96552 -2.20443,-1.59766 -3.74609,-1.59766c-1.54167,0 -2.88785,0.63213 -3.74609,1.59766c-0.85824,0.96552 -1.25391,2.19401 -1.25391,3.40234c0,1.05291 0.36465,2.092 1.00977,2.98828l-1.50977,2.01172c-0.47227,0.62991 -1.21201,1 -2,1h-1.5v-0.5v-4.95508c0,-3.61838 -3.03068,-6.54297 -6.68164,-6.54297zM19.31836,7.00195c2.07304,0 3.68164,1.58934 3.68164,3.54297v4.95508c0,2.83075 -2.66925,5.5 -5.5,5.5c-0.54095,-0.00765 -1.04412,0.27656 -1.31683,0.74381c-0.27271,0.46725 -0.27271,1.04514 0,1.51238c0.27271,0.46725 0.77588,0.75146 1.31683,0.74381c2.09784,0 3.99669,-0.88194 5.5,-2.20117v1.95508c-0.02645,0.16103 -0.02645,0.3253 0,0.48633v6.01367c-0.02645,0.16103 -0.02645,0.3253 0,0.48633v7.55469c0,1.49089 -1.22246,2.70508 -2.81836,2.70508c-1.41756,0 -2.53396,-0.98221 -2.76367,-2.22852c-0.14697,-0.79683 -0.90014,-1.33296 -1.70117,-1.21094c-0.11562,0.01758 -0.93465,0.07617 -1.11524,0.07617c-2.48336,0 -4.40744,-1.87537 -4.50781,-4.20703c0.00434,-0.0487 0.00629,-0.09759 0.00586,-0.14648c0,-2.08845 1.67591,-3.90214 3.69922,-4.3125c0.81074,-0.16646 1.33368,-0.95785 1.16888,-1.76892c-0.1648,-0.81108 -0.95512,-1.33563 -1.76653,-1.17248c-1.7242,0.3497 -3.26544,1.30033 -4.375,2.62109c-1.10253,-1.20051 -1.82617,-2.69832 -1.82617,-4.65039c0,-1.61422 0.59131,-3.06934 1.57617,-4.26953c0.29709,-0.3617 0.40833,-0.84133 0.30078,-1.29687c-0.09415,-0.39971 -0.14844,-0.78374 -0.14844,-1.16016c0,-2.88216 2.38272,-5.22656 5.4082,-5.22656c0.82839,-0.00008 1.49992,-0.67161 1.5,-1.5c0,-1.95456 1.6086,-3.54492 3.68164,-3.54492zM35,8c0.79167,0 1.19548,0.24287 1.50391,0.58984c0.30842,0.34698 0.49609,0.86849 0.49609,1.41016c0,0.54167 -0.18767,1.06318 -0.49609,1.41016c-0.30842,0.34698 -0.71224,0.58984 -1.50391,0.58984c-0.79167,0 -1.19548,-0.24287 -1.50391,-0.58984c-0.30842,-0.34698 -0.49609,-0.86849 -0.49609,-1.41016c0,-0.54167 0.18767,-1.06318 0.49609,-1.41016c0.30842,-0.34698 0.71224,-0.58984 1.50391,-0.58984zM16.51172,14.99805c-0.03454,0.00011 -0.06907,0.00141 -0.10352,0.00391c-2.08275,0.12877 -3.54341,1.15224 -4.33398,2.13672c-0.79058,0.98448 -1.03516,2.01953 -1.03516,2.01953c-0.12217,0.52197 0.04342,1.06946 0.43439,1.43622c0.39097,0.36676 0.94792,0.49706 1.46102,0.34182c0.5131,-0.15525 0.90439,-0.57245 1.02646,-1.09444c0,0 0.0807,-0.36045 0.45312,-0.82422c0.37242,-0.46377 0.91248,-0.9413 2.17774,-1.01953c0.82832,-0.02225 1.48182,-0.7117 1.45971,-1.54003c-0.02211,-0.82833 -0.71145,-1.48194 -1.53979,-1.45997zM39,22c0.79167,0 1.19548,0.24287 1.50391,0.58984c0.30842,0.34698 0.49609,0.86849 0.49609,1.41016c0,0.54167 -0.18767,1.06318 -0.49609,1.41016c-0.30842,0.34698 -0.71224,0.58984 -1.50391,0.58984c-0.79167,0 -1.19548,-0.24287 -1.50391,-0.58984c-0.29696,-0.33408 -0.46517,-0.83757 -0.47852,-1.35742c0.00193,-0.03577 0.00258,-0.0716 0.00195,-0.10742c0.01392,-0.51886 0.18012,-1.02197 0.47656,-1.35547c0.30838,-0.34698 0.71224,-0.58984 1.50391,-0.58984zM17.44727,28.99023c-0.69359,0.0154 -1.28614,0.50438 -1.4329,1.18244c-0.14676,0.67806 0.19057,1.3683 0.81571,1.66912c0,0 0.18088,0.07425 0.49805,0.4707c0.31716,0.39645 0.67188,1.02083 0.67188,2.1875c-0.00765,0.54095 0.27656,1.04412 0.74381,1.31683c0.46725,0.27271 1.04514,0.27271 1.51238,0c0.46725,-0.27271 0.75146,-0.77588 0.74381,-1.31683c0,-1.83333 -0.64529,-3.20895 -1.32812,-4.0625c-0.68284,-0.85355 -1.50195,-1.2793 -1.50195,-1.2793c-0.22302,-0.11561 -0.47151,-0.17337 -0.72266,-0.16797zM35,36c0.79167,0 1.19548,0.24287 1.50391,0.58984c0.30842,0.34698 0.49609,0.86849 0.49609,1.41016c0,0.54167 -0.18767,1.06318 -0.49609,1.41016c-0.30842,0.34698 -0.71224,0.58984 -1.50391,0.58984c-0.79167,0 -1.19548,-0.24287 -1.50391,-0.58984c-0.30842,-0.34698 -0.49609,-0.86849 -0.49609,-1.41016c0,-0.54167 0.18767,-1.06318 0.49609,-1.41016c0.30842,-0.34698 0.71224,-0.58984 1.50391,-0.58984z"></path></g></g></g></svg>