<svg xmlns="http://www.w3.org/2000/svg" xmlns:xlink="http://www.w3.org/1999/xlink" viewBox="0,0,256,256" width="24px" height="24px" fill-rule="nonzero"><g transform="translate(8.96,8.96) scale(0.93,0.93)"><g fill="#000000" fill-rule="nonzero" stroke="none" stroke-width="1" stroke-linecap="butt" stroke-linejoin="miter" stroke-miterlimit="10" stroke-dasharray="" stroke-dashoffset="0" font-family="none" font-weight="none" font-size="none" text-anchor="none" style="mix-blend-mode: normal"><g transform="scale(10.66667,10.66667)"><path d="M11.612,15.61l-0.809,1.852c-0.311,0.712 -1.296,0.712 -1.607,0l-0.808,-1.852c-0.72,-1.648 -2.015,-2.96 -3.631,-3.678l-2.226,-0.988c-0.708,-0.314 -0.708,-1.344 0,-1.658l2.156,-0.957c1.657,-0.736 2.976,-2.096 3.683,-3.801l0.82,-1.974c0.304,-0.733 1.316,-0.733 1.62,0l0.819,1.974c0.707,1.705 2.026,3.065 3.683,3.801l2.156,0.957c0.708,0.314 0.708,1.344 0,1.658l-2.226,0.988c-1.615,0.717 -2.91,2.029 -3.63,3.678z"></path><path d="M18.713,21.125l-0.247,0.565c-0.18,0.414 -0.753,0.414 -0.934,0l-0.247,-0.565c-0.44,-1.008 -1.231,-1.81 -2.219,-2.249l-0.76,-0.337c-0.411,-0.182 -0.411,-0.78 0,-0.962l0.717,-0.319c1.013,-0.45 1.819,-1.282 2.251,-2.324l0.253,-0.611c0.176,-0.426 0.765,-0.426 0.941,0l0.253,0.611c0.432,1.042 1.238,1.874 2.251,2.324l0.717,0.319c0.411,0.182 0.411,0.78 0,0.962l-0.76,0.337c-0.984,0.439 -1.776,1.241 -2.216,2.249z"></path></g></g></g></svg>