<svg xmlns="http://www.w3.org/2000/svg"  viewBox="0 0 48 48" width="48px" height="48px"><path d="M 10.5 6 C 7.467 6 5 8.468 5 11.5 L 5 13.5 L 5 36.5 C 5 39.532 7.467 42 10.5 42 L 23.181641 42 C 23.377641 41.176 23.734938 40.415094 24.210938 39.746094 C 23.777938 39.573094 23.386594 39.321 23.058594 39 L 10.5 39 C 9.122 39 8 37.879 8 36.5 L 8 15 L 40 15 L 40 24.058594 C 40.531 24.602594 40.872937 25.320234 40.960938 26.115234 C 41.491937 25.556234 42.2 25.166781 43 25.050781 L 43 13.5 L 43 11.5 C 43 11.3105 42.98952 11.124082 42.970703 10.939453 C 42.895466 10.200938 42.674995 9.50425 42.335938 8.8808594 C 41.657945 7.6346085 40.510765 6.6775943 39.134766 6.2480469 C 39.134168 6.2478607 39.13341 6.2482329 39.132812 6.2480469 C 38.789218 6.140914 38.431076 6.0669919 38.0625 6.0292969 C 38.06186 6.0292317 38.061186 6.0293618 38.060547 6.0292969 C 37.875918 6.0104805 37.6895 6 37.5 6 L 10.5 6 z M 10.5 9 C 11.328 9 12 9.672 12 10.5 C 12 11.328 11.328 12 10.5 12 C 9.672 12 9 11.328 9 10.5 C 9 9.7755 9.5139453 9.1711953 10.197266 9.03125 C 10.294883 9.0112578 10.3965 9 10.5 9 z M 15.5 9 C 16.328 9 17 9.672 17 10.5 C 17 11.328 16.328 12 15.5 12 C 14.672 12 14 11.328 14 10.5 C 14 9.672 14.672 9 15.5 9 z M 32.476562 24.978516 A 1.50015 1.50015 0 0 0 31 26.5 L 31 27 C 31 27.629751 31.162812 28.219248 31.427734 28.751953 C 30.561371 29.283381 29.864611 30.060914 29.445312 30.994141 C 28.626352 30.965847 28 30.327607 28 29.5 L 28 28.5 A 1.50015 1.50015 0 0 0 26.476562 26.978516 A 1.50015 1.50015 0 0 0 25 28.5 L 25 29.5 C 25 31.796595 26.766623 33.694299 29 33.949219 L 29 35 L 25.5 35 A 1.50015 1.50015 0 1 0 25.5 38 L 29 38 L 29 39 C 29 39.0171 29.001808 39.033713 29.001953 39.050781 C 26.767662 39.304816 25 41.202744 25 43.5 L 25 44.5 A 1.50015 1.50015 0 1 0 28 44.5 L 28 43.5 C 28 42.653501 28.653501 42 29.5 42 L 29.818359 42 C 30.861346 43.787192 32.7957 45 35 45 C 37.2043 45 39.139237 43.787193 40.181641 42 L 40.5 42 C 41.346499 42 42 42.653501 42 43.5 L 42 44.5 A 1.50015 1.50015 0 1 0 45 44.5 L 45 43.5 C 45 41.202084 43.231299 39.30393 40.996094 39.050781 C 40.996232 39.033712 40.998054 39.017102 40.998047 39 L 40.998047 38 L 44.5 38 A 1.50015 1.50015 0 1 0 44.5 35 L 40.998047 35 L 40.998047 33.949219 C 43.232338 33.695184 45 31.797256 45 29.5 L 45 28.5 A 1.50015 1.50015 0 0 0 43.476562 26.978516 A 1.50015 1.50015 0 0 0 42 28.5 L 42 29.5 C 42 30.327607 41.373648 30.965847 40.554688 30.994141 C 40.135997 30.061562 39.437424 29.285333 38.572266 28.753906 C 38.837665 28.220814 39 27.630357 39 27 L 39 26.5 A 1.50015 1.50015 0 1 0 36 26.5 L 36 27 C 36 27.570718 35.570718 28 35 28 C 34.429282 28 34 27.570718 34 27 L 34 26.5 A 1.50015 1.50015 0 0 0 32.476562 24.978516 z M 34.029297 31 L 35.970703 31 C 37.109031 31 37.998047 31.890969 37.998047 33.029297 L 37.998047 36.269531 A 1.50015 1.50015 0 0 0 37.998047 36.728516 L 37.998047 39 C 37.99872 40.673809 36.674135 42 35 42 C 33.325865 42 32 40.674135 32 39 L 32 36.746094 A 1.50015 1.50015 0 0 0 32 36.259766 L 32 33.029297 C 32 31.890969 32.890969 31 34.029297 31 z"/></svg>