<svg xmlns="http://www.w3.org/2000/svg" xmlns:xlink="http://www.w3.org/1999/xlink" viewBox="0,0,256,256" width="16px" height="16px" fill-rule="nonzero"><g transform="translate(23.04,23.04) scale(0.82,0.82)"><g fill="#000000" fill-rule="nonzero" stroke="none" stroke-width="1" stroke-linecap="butt" stroke-linejoin="miter" stroke-miterlimit="10" stroke-dasharray="" stroke-dashoffset="0" font-family="none" font-weight="none" font-size="none" text-anchor="none" style="mix-blend-mode: normal"><g transform="scale(16,16)"><path d="M10.91016,0c-1.36,0 -2.63761,0.52923 -3.59961,1.49023l-2.20312,2.20313l1.41406,1.41406l2.20313,-2.20117c0.584,-0.585 1.35955,-0.90625 2.18555,-0.90625c0.825,0 1.60155,0.3203 2.18555,0.9043c0.584,0.584 0.9043,1.36055 0.9043,2.18555c0,0.826 -0.3203,1.60155 -0.9043,2.18555l-2.20312,2.20313l1.41406,1.41406l2.20313,-2.20312c0.961,-0.961 1.49023,-2.23961 1.49023,-3.59961c0,-1.36 -0.52923,-2.63861 -1.49023,-3.59961c-0.961,-0.961 -2.23961,-1.49023 -3.59961,-1.49023zM10.29297,4.29297l-6,6l1.41406,1.41406l6,-6zM3.69336,5.10742l-2.20312,2.20313c-0.961,0.961 -1.49023,2.23961 -1.49023,3.59961c0,1.36 0.52923,2.63861 1.49023,3.59961c0.961,0.961 2.23961,1.49023 3.59961,1.49023c1.36,0 2.63761,-0.52923 3.59961,-1.49023l2.20312,-2.20312l-1.41406,-1.41406l-2.20312,2.20117c-1.168,1.167 -3.20209,1.168 -4.37109,0c-0.584,-0.583 -0.9043,-1.35859 -0.9043,-2.18359c0,-0.826 0.3203,-1.60155 0.9043,-2.18555l2.20313,-2.20312z"></path></g></g></g></svg>